HIERARCHY
ROOT joint_Root
{
	OFFSET 0.0 0.0 0.0
	CHANNELS 6 Xposition Yposition Zposition Zrotation Xrotation Yrotation 
	JOINT Hips
	{
		OFFSET -17.1583 93.1646 452.98
		CHANNELS 6 Xposition Yposition Zposition Zrotation Xrotation Yrotation 
		JOINT Spine
		{
			OFFSET 15.7357 0.0 0.0
			CHANNELS 6 Xposition Yposition Zposition Zrotation Xrotation Yrotation 
			JOINT Chest
			{
				OFFSET 8.98455 -0.406207 0.0
				CHANNELS 6 Xposition Yposition Zposition Zrotation Xrotation Yrotation 
				JOINT Neck
				{
					OFFSET 16.3773 0.0 0.0
					CHANNELS 6 Xposition Yposition Zposition Zrotation Xrotation Yrotation 
					JOINT Head
					{
						OFFSET 6.45672 0.0 0.0
						CHANNELS 6 Xposition Yposition Zposition Zrotation Xrotation Yrotation 
						End Site
						{
							OFFSET 0.0 0.0 0.0
						}
					}
				}
				JOINT Shoulder_L
				{
					OFFSET 12.9942 -0.242716 4.98039
					CHANNELS 6 Xposition Yposition Zposition Zrotation Xrotation Yrotation 
					JOINT UpperArm_L
					{
						OFFSET 5.34809 0.0 0.0
						CHANNELS 6 Xposition Yposition Zposition Zrotation Xrotation Yrotation 
						JOINT LowerArm_L
						{
							OFFSET 24.3286 1.87007e-05 0.0
							CHANNELS 6 Xposition Yposition Zposition Zrotation Xrotation Yrotation 
							JOINT Hand_L
							{
								OFFSET 22.2916 0.0 0.0
								CHANNELS 6 Xposition Yposition Zposition Zrotation Xrotation Yrotation 
								End Site
								{
									OFFSET 0.0 0.0 0.0
								}
							}
						}
					}
				}
				JOINT Shoulder_R
				{
					OFFSET 12.9945 -0.242716 -4.98039
					CHANNELS 6 Xposition Yposition Zposition Zrotation Xrotation Yrotation 
					JOINT UpperArm_R
					{
						OFFSET -5.34813 0.0 0.0
						CHANNELS 6 Xposition Yposition Zposition Zrotation Xrotation Yrotation 
						JOINT LowerArm_R
						{
							OFFSET -24.3289 0.000322201 0.0
							CHANNELS 6 Xposition Yposition Zposition Zrotation Xrotation Yrotation 
							JOINT Hand_R
							{
								OFFSET -22.2915 -0.000108084 0.0
								CHANNELS 6 Xposition Yposition Zposition Zrotation Xrotation Yrotation 
								End Site
								{
									OFFSET 0.0 0.0 0.0
								}
							}
						}
					}
				}
			}
		}
		JOINT UpperLeg_L
		{
			OFFSET -2.19248 -6.46944 0.0
			CHANNELS 6 Xposition Yposition Zposition Zrotation Xrotation Yrotation 
			JOINT LowerLeg_L
			{
				OFFSET 39.0811 0.0 -1.23785e-05
				CHANNELS 6 Xposition Yposition Zposition Zrotation Xrotation Yrotation 
				JOINT Foot_L
				{
					OFFSET 40.9854 0.0 -1.26872e-05
					CHANNELS 6 Xposition Yposition Zposition Zrotation Xrotation Yrotation 
					JOINT Toes_L
					{
						OFFSET 11.7543 0.0 0.0
						CHANNELS 6 Xposition Yposition Zposition Zrotation Xrotation Yrotation 
						End Site
						{
							OFFSET 0.0 0.0 0.0
						}
					}
				}
			}
		}
		JOINT UpperLeg_R
		{
			OFFSET -2.19251 6.46944 0.0
			CHANNELS 6 Xposition Yposition Zposition Zrotation Xrotation Yrotation 
			JOINT LowerLeg_R
			{
				OFFSET -39.0811 -0.00228153 -0.0401928
				CHANNELS 6 Xposition Yposition Zposition Zrotation Xrotation Yrotation 
				JOINT Foot_R
				{
					OFFSET -40.9854 0.0 0.0
					CHANNELS 6 Xposition Yposition Zposition Zrotation Xrotation Yrotation 
					JOINT Toes_R
					{
						OFFSET -11.7543 0.0 0.0
						CHANNELS 6 Xposition Yposition Zposition Zrotation Xrotation Yrotation 
						End Site
						{
							OFFSET 0.0 0.0 0.0
						}
					}
				}
			}
		}
	}
}
MOTION
Frames:	6
Frame Time:	0.0333333
0.000000 0.000000 0.000000 0.000000 0.000000 -0.000000 89.387100 88.875400 170.526000 -47.763000 72.073500 149.331000 15.735700 0.000005 -0.000001 68.780900 84.314400 -64.700000 8.984550 -0.406207 -0.000000 3.007230 -4.280690 8.269000 16.377300 -0.000001 -0.000001 20.283600 17.813900 -8.453610 6.456720 -0.000001 -0.000000 -7.418730 28.075600 8.087870 12.994200 -0.242716 4.980390 -92.553500 6.376010 -68.120500 5.348090 -0.000007 -0.000001 -73.190700 0.190283 -7.687610 24.328600 0.000019 0.000005 25.996100 25.097200 -48.983700 22.291600 -0.000001 0.000005 53.079100 4.497170 16.646800 12.994500 -0.242716 -4.980390 87.311600 6.223850 -66.581900 -5.348130 -0.000001 -0.000004 -60.809800 1.653550 6.474680 -24.328900 0.000322 -0.000009 0.249769 3.255280 -4.410250 -22.291500 -0.000108 -0.000004 43.992700 5.584460 -10.454000 -2.192480 -6.469440 -0.000000 -169.458000 3.336300 4.919250 39.081100 -0.000007 -0.000012 -0.024850 0.016331 56.695300 40.985400 -0.000006 -0.000013 -7.018130 12.827100 -31.651600 11.754300 -0.000000 0.000003 0.002480 0.088256 -12.997600 -2.192510 6.469440 -0.000001 -167.937000 1.416980 165.368000 -39.081100 -0.002282 -0.040193 0.205480 -0.304075 33.620900 -40.985400 0.000008 0.000006 1.120030 2.578950 -66.861100 -11.754300 -0.000006 -0.000006 -0.009856 0.270228 -5.595050
0.000000 0.000000 0.000000 0.000000 0.000000 -0.000000 92.544100 89.249800 169.676000 -52.640800 69.218000 154.446000 15.735700 0.000005 -0.000001 72.709700 84.189500 -68.433700 8.984550 -0.406207 -0.000000 3.484880 -3.609100 8.655170 16.377300 -0.000001 -0.000001 18.720300 17.044400 -7.020960 6.456720 -0.000001 -0.000000 -6.569690 26.361900 6.973040 12.994200 -0.242716 4.980390 -92.587800 6.509640 -68.265100 5.348090 -0.000007 -0.000001 -74.648200 3.238950 -6.657040 24.328600 0.000019 0.000005 23.295800 29.014400 -41.596900 22.291600 -0.000001 0.000005 52.917300 4.523700 16.206300 12.994500 -0.242716 -4.980390 87.271900 6.300610 -66.530300 -5.348130 -0.000001 -0.000004 -62.640400 3.847410 3.258900 -24.328900 0.000322 -0.000009 0.095830 0.846329 -6.537870 -22.291500 -0.000108 -0.000004 44.001400 5.589060 -10.709300 -2.192480 -6.469440 -0.000000 -169.514000 4.603490 -1.351810 39.081100 -0.000007 -0.000012 0.067427 -0.032608 64.187900 40.985400 -0.000006 -0.000013 -8.160720 1.431140 -33.951800 11.754300 -0.000000 0.000003 0.002483 0.080373 -13.317200 -2.192510 6.469440 -0.000001 -168.080000 4.946640 168.039000 -39.081100 -0.002282 -0.040193 0.226436 -0.341307 33.176300 -40.985400 0.000008 0.000006 1.245460 2.697140 -68.543600 -11.754300 -0.000006 -0.000006 -0.010678 0.276306 -5.346390
0.000000 0.000000 0.000000 0.000000 0.000000 -0.000000 95.458300 89.729500 168.485000 -57.639300 67.486500 159.896000 15.735700 0.000005 -0.000001 78.855700 84.032500 -74.792500 8.984550 -0.406207 -0.000000 4.046200 -2.434870 8.204430 16.377300 -0.000001 -0.000001 17.853100 16.245800 -5.727750 6.456720 -0.000001 -0.000000 -6.070380 24.572900 6.267000 12.994200 -0.242716 4.980390 -92.595900 6.503360 -68.184300 5.348090 -0.000007 -0.000001 -75.694000 5.021820 -5.762020 24.328600 0.000019 0.000005 18.381200 32.193200 -31.951600 22.291600 -0.000001 0.000005 51.337300 4.617760 14.607300 12.994500 -0.242716 -4.980390 87.308500 6.277300 -66.735400 -5.348130 -0.000001 -0.000004 -64.067800 7.336280 -0.756722 -24.328900 0.000322 -0.000009 -0.330703 -2.293720 -8.178470 -22.291500 -0.000108 -0.000004 44.419200 5.592660 -10.913500 -2.192480 -6.469440 -0.000000 -171.667000 4.718030 -6.351740 39.081100 -0.000007 -0.000012 -0.050520 0.019149 69.247000 40.985400 -0.000006 -0.000013 -3.075190 -2.764280 -43.351000 11.754300 -0.000000 0.000003 0.002486 0.081827 -13.258200 -2.192510 6.469440 -0.000001 -169.421000 6.592040 171.479000 -39.081100 -0.002282 -0.040193 0.223154 -0.351499 32.025500 -40.985400 0.000008 0.000006 0.760671 1.936890 -69.983900 -11.754300 -0.000006 -0.000006 -0.011695 0.283562 -5.049370
0.000000 0.000000 0.000000 0.000000 0.000000 -0.000000 98.113500 90.210200 167.149000 -63.084400 66.038700 165.385000 15.735700 0.000005 -0.000001 83.688000 83.977500 -80.060700 8.984550 -0.406207 -0.000000 4.262810 -1.432720 7.300320 16.377300 -0.000001 -0.000001 17.616300 15.488300 -5.131160 6.456720 -0.000001 -0.000000 -5.603930 23.037600 6.505970 12.994200 -0.242716 4.980390 -92.527000 6.299910 -68.091100 5.348090 -0.000007 -0.000001 -76.178200 4.437420 -4.271080 24.328600 0.000019 0.000005 12.704700 34.281700 -21.813600 22.291600 -0.000001 0.000005 49.924900 4.692670 13.288700 12.994500 -0.242716 -4.980390 87.417600 6.104470 -67.016800 -5.348130 -0.000001 -0.000004 -64.707000 10.941400 -5.233040 -24.328900 0.000322 -0.000009 -0.833563 -4.669980 -10.119000 -22.291500 -0.000108 -0.000004 45.070200 5.595010 -11.048600 -2.192480 -6.469440 -0.000000 -174.732000 5.489200 -10.620400 39.081100 -0.000007 -0.000012 -0.143278 0.050936 70.431500 40.985400 -0.000006 -0.000013 -0.988159 -5.085460 -50.399500 11.754300 -0.000000 0.000003 0.002487 0.084886 -13.134200 -2.192510 6.469440 -0.000001 -171.350000 7.603460 174.764000 -39.081100 -0.002282 -0.040193 0.211613 -0.353991 30.475700 -40.985400 0.000008 0.000006 0.059689 0.900970 -71.264500 -11.754300 -0.000006 -0.000006 -0.012219 0.287197 -4.900500
0.000000 0.000000 0.000000 0.000000 0.000000 -0.000000 100.567000 90.614700 165.809000 -68.147800 64.265600 170.116000 15.735700 0.000005 -0.000001 87.264800 84.005400 -84.084700 8.984550 -0.406207 -0.000000 4.236350 -0.668932 6.377830 16.377300 -0.000001 -0.000001 17.764400 14.844200 -4.643530 6.456720 -0.000001 -0.000000 -5.192880 21.707200 6.671360 12.994200 -0.242716 4.980390 -92.514500 6.188310 -67.835100 5.348090 -0.000007 -0.000001 -75.449300 2.232930 -1.734800 24.328600 0.000019 0.000005 8.328080 33.645300 -14.799500 22.291600 -0.000001 0.000005 48.547300 4.634000 14.325700 12.994500 -0.242716 -4.980390 87.606300 5.714350 -67.226200 -5.348130 -0.000001 -0.000004 -65.130400 12.387600 -9.053980 -24.328900 0.000322 -0.000009 -1.347040 -5.365970 -14.103400 -22.291500 -0.000108 -0.000004 45.472700 5.597530 -11.195900 -2.192480 -6.469440 -0.000000 -177.596000 6.643750 -14.209700 39.081100 -0.000007 -0.000012 -0.181619 0.072805 68.157300 40.985400 -0.000006 -0.000013 -0.459710 -6.518430 -55.530200 11.754300 -0.000000 0.000003 0.002450 0.094011 -12.764300 -2.192510 6.469440 -0.000001 -173.399000 8.875370 177.736000 -39.081100 -0.002282 -0.040193 0.181046 -0.324672 28.698600 -40.985400 0.000008 0.000006 -1.088980 0.279986 -72.198300 -11.754300 -0.000006 -0.000006 -0.012315 0.287860 -4.873330
0.000000 0.000000 0.000000 0.000000 0.000000 -0.000000 102.883000 90.996800 164.475000 -72.450900 62.418000 173.638000 15.735700 0.000005 -0.000001 91.186400 84.122100 -88.445700 8.984550 -0.406207 -0.000000 3.989510 0.152893 5.469990 16.377300 -0.000001 -0.000001 17.987000 14.245200 -4.122770 6.456720 -0.000001 -0.000000 -4.967920 20.426200 6.870720 12.994200 -0.242716 4.980390 -92.566100 6.228160 -67.554400 5.348090 -0.000007 -0.000001 -73.468200 -2.856670 1.293280 24.328600 0.000019 0.000005 5.602610 29.632800 -11.221600 22.291600 -0.000001 0.000005 47.752100 4.584270 15.184200 12.994500 -0.242716 -4.980390 87.710600 5.479680 -67.283100 -5.348130 -0.000001 -0.000004 -65.317400 12.295100 -12.041200 -24.328900 0.000322 -0.000009 -1.888640 -5.236380 -19.855200 -22.291500 -0.000108 -0.000004 45.617200 5.598480 -11.252200 -2.192480 -6.469440 -0.000000 179.966000 7.237420 -16.987700 39.081100 -0.000007 -0.000012 -0.181114 0.093294 62.747900 40.985400 -0.000006 -0.000013 0.475129 -8.709350 -60.278000 11.754300 -0.000000 0.000003 0.002424 0.070387 -13.722000 -2.192510 6.469440 -0.000001 -175.631000 11.146900 -179.449000 -39.081100 -0.002282 -0.040193 0.137089 -0.270336 26.329300 -40.985400 0.000008 0.000006 -2.256480 0.842184 -72.632800 -11.754300 -0.000006 -0.000006 -0.012665 0.290241 -4.775770
